<svg xmlns="http://www.w3.org/2000/svg" viewBox="0 0 120 120" role="img" aria-label="Nexa logo">
  <defs>
    <linearGradient id="logoGradient" x1="0" y1="0" x2="1" y2="1">
      <stop offset="0%" stop-color="#8B5CFF"/>
      <stop offset="50%" stop-color="#00D4FF"/>
      <stop offset="100%" stop-color="#00E7A8"/>
    </linearGradient>
    <linearGradient id="outlineGradient" x1="0" y1="0" x2="1" y2="1">
      <stop offset="0%" stop-color="#A04CFF"/>
      <stop offset="100%" stop-color="#00E7A8"/>
    </linearGradient>
    <filter id="softShadow" x="-20%" y="-20%" width="140%" height="140%">
      <feDropShadow dx="0" dy="8" stdDeviation="12" flood-color="#020617" flood-opacity="0.45"/>
    </filter>
  </defs>
  <rect x="0" y="0" width="120" height="120" rx="28" fill="#020617"/>
  <g filter="url(#softShadow)">
    <path d="M34 78 C34 78 34 36 34 36 C34 26 44 26 52 26 C62 26 70 38 70 48 L70 80" fill="none" stroke="url(#logoGradient)" stroke-width="12" stroke-linecap="round" stroke-linejoin="round"/>
    <path d="M70 48 L96 22" fill="none" stroke="url(#logoGradient)" stroke-width="12" stroke-linecap="round"/>
    <path d="M90 16 L96 22 L86 24" fill="none" stroke="url(#logoGradient)" stroke-width="10" stroke-linecap="round" stroke-linejoin="round"/>
    <path d="M70 48 C70 48 84 30 90 24" fill="none" stroke="url(#logoGradient)" stroke-width="12" stroke-linecap="round"/>
    <path d="M34 78 C34 78 34 44 34 36" fill="none" stroke="url(#outlineGradient)" stroke-width="10" stroke-linecap="round"/>
  </g>
</svg>
